HIERARCHY
ROOT bottle4_body
{
	OFFSET 0.000000 0.000000 0.000000
	CHANNELS 6 Xposition Yposition Zposition Yrotation Xrotation Zrotation
	End Site
	{
		OFFSET 0.000000 0.000000 0.000000
	}
}
MOTION
Frames: 120
Frame Time: 0.008333334
3.027039 4.345500 3.714067 -30.935790 -0.415222 0.565662 
3.026585 4.345593 3.714639 -30.899960 -0.445831 0.532991 
3.025930 4.345568 3.715378 -30.847020 -0.495209 0.525958 
3.025538 4.345584 3.715966 -30.798430 -0.496918 0.519370 
3.025107 4.345526 3.716215 -30.794370 -0.485809 0.510478 
3.024629 4.345585 3.716721 -30.766270 -0.493591 0.498985 
3.024220 4.345474 3.717075 -30.711790 -0.468170 0.472733 
3.023497 4.345696 3.717735 -30.713990 -0.475067 0.489708 
3.022681 4.345573 3.718086 -30.699650 -0.457306 0.543001 
3.021906 4.345643 3.718248 -30.592350 -0.474182 0.562241 
3.021152 4.345560 3.718714 -30.604610 -0.493225 0.596323 
3.020385 4.345703 3.719055 -30.604280 -0.497192 0.567487 
3.019792 4.345734 3.719512 -30.595520 -0.469299 0.547208 
3.019187 4.345677 3.719735 -30.567200 -0.433228 0.570881 
3.018737 4.345778 3.720084 -30.501130 -0.423004 0.535182 
3.018193 4.345646 3.720193 -30.466400 -0.391144 0.495558 
3.017555 4.345729 3.720361 -30.501860 -0.403351 0.503583 
3.017076 4.345867 3.720417 -30.467680 -0.381134 0.498991 
3.016612 4.345993 3.720595 -30.465390 -0.377716 0.494127 
3.015912 4.346020 3.720880 -30.459630 -0.419037 0.527826 
3.015644 4.346019 3.721173 -30.483980 -0.389710 0.475029 
3.015021 4.346053 3.721489 -30.468600 -0.404327 0.503432 
3.014636 4.345965 3.721474 -30.423520 -0.394898 0.524501 
3.014168 4.345960 3.721637 -30.412480 -0.382019 0.513313 
3.013668 4.346063 3.721576 -30.370880 -0.378296 0.548635 
3.013048 4.346220 3.721550 -30.347810 -0.332336 0.567295 
3.012405 4.346237 3.721703 -30.366420 -0.364502 0.543964 
3.011613 4.346248 3.721845 -30.302150 -0.392853 0.531225 
3.010827 4.346301 3.721999 -30.308290 -0.404816 0.526768 
3.010247 4.346410 3.722011 -30.307220 -0.420044 0.529025 
3.009784 4.346447 3.722045 -30.288850 -0.400757 0.537449 
3.009151 4.346310 3.722574 -30.368710 -0.406464 0.508589 
3.009031 4.346277 3.722050 -30.270450 -0.380981 0.527361 
3.008595 4.346374 3.722024 -30.272740 -0.425659 0.551865 
3.008282 4.346488 3.722064 -30.260350 -0.426941 0.524963 
3.007865 4.346515 3.722477 -30.323330 -0.475525 0.483767 
3.007402 4.346496 3.722793 -30.281430 -0.458984 0.518462 
3.007146 4.346746 3.722742 -30.174410 -0.443329 0.527731 
3.006818 4.346698 3.723132 -30.191130 -0.459168 0.521648 
3.006734 4.346618 3.723264 -30.163450 -0.374512 0.502921 
3.006318 4.346621 3.723730 -30.267940 -0.450958 0.501928 
3.006253 4.346666 3.723229 -30.245210 -0.399567 0.514791 
3.006041 4.346463 3.723502 -30.259920 -0.322174 0.491700 
3.005750 4.346381 3.724143 -30.348050 -0.335114 0.467777 
3.005482 4.346363 3.724165 -30.357420 -0.346314 0.476940 
3.005440 4.346604 3.723491 -30.293980 -0.397064 0.522109 
3.004821 4.346427 3.724104 -30.385010 -0.411377 0.516966 
3.004565 4.346599 3.723923 -30.433230 -0.384827 0.502035 
3.004391 4.346360 3.724068 -30.417140 -0.387970 0.517499 
3.004267 4.346395 3.723879 -30.452240 -0.388763 0.515552 
3.004119 4.346311 3.723868 -30.463260 -0.396301 0.524714 
3.004066 4.346301 3.723853 -30.477050 -0.386200 0.516964 
3.004131 4.346301 3.723422 -30.392730 -0.363159 0.547023 
3.004044 4.346332 3.723651 -30.427950 -0.329681 0.521313 
3.003895 4.346364 3.723464 -30.416500 -0.342133 0.535294 
3.003741 4.346324 3.723693 -30.450380 -0.373718 0.545738 
3.003694 4.346331 3.723608 -30.417820 -0.366821 0.549920 
3.003602 4.346433 3.723846 -30.454040 -0.323273 0.516777 
3.003597 4.346410 3.724023 -30.453310 -0.304657 0.507719 
3.003594 4.346409 3.724277 -30.452390 -0.296967 0.503800 
3.003655 4.346231 3.724507 -30.444730 -0.309662 0.518780 
3.003677 4.346233 3.724545 -30.449340 -0.291016 0.520180 
3.003648 4.346479 3.724831 -30.431920 -0.406464 0.533476 
3.003716 4.346683 3.724955 -30.423280 -0.471588 0.549446 
3.003622 4.346837 3.725099 -30.429780 -0.474121 0.532745 
3.003678 4.346905 3.725331 -30.413090 -0.499939 0.549190 
3.003383 4.346692 3.725470 -30.418580 -0.414246 0.514297 
3.003216 4.346623 3.725756 -30.428500 -0.392731 0.486259 
3.003096 4.346692 3.725966 -30.445650 -0.400513 0.473367 
3.002825 4.346821 3.725938 -30.449400 -0.412506 0.474369 
3.002697 4.346787 3.726083 -30.449890 -0.389954 0.461670 
3.002382 4.346666 3.726208 -30.431640 -0.448700 0.504756 
3.002137 4.346595 3.726214 -30.457820 -0.451111 0.501757 
3.001877 4.346653 3.726201 -30.456120 -0.445496 0.489746 
3.001667 4.346664 3.726240 -30.449130 -0.437439 0.493251 
3.001559 4.346743 3.726279 -30.432010 -0.450378 0.506035 
3.001221 4.346577 3.726296 -30.412750 -0.418060 0.502625 
3.001071 4.346716 3.726468 -30.386600 -0.451172 0.510464 
3.000843 4.346732 3.726499 -30.376280 -0.430695 0.509517 
3.000612 4.346673 3.726722 -30.349400 -0.403931 0.493367 
3.000458 4.346679 3.726941 -30.329530 -0.408142 0.499516 
3.000210 4.346796 3.727356 -30.269960 -0.430115 0.517575 
2.999941 4.346873 3.727484 -30.250700 -0.409515 0.509914 
2.999610 4.346857 3.727760 -30.231960 -0.393616 0.509843 
2.999318 4.346855 3.727913 -30.212710 -0.386719 0.511028 
2.998922 4.346921 3.728090 -30.208340 -0.412384 0.518363 
2.998553 4.346993 3.728332 -30.185790 -0.393921 0.521106 
2.998079 4.346938 3.728592 -30.174770 -0.392365 0.496941 
2.997616 4.346916 3.728787 -30.140810 -0.413269 0.497465 
2.997278 4.346956 3.728924 -30.133420 -0.393585 0.487243 
2.996886 4.347068 3.729182 -30.144230 -0.438721 0.516479 
2.996392 4.347156 3.729331 -30.106570 -0.384705 0.506872 
2.995992 4.347272 3.729389 -30.061280 -0.372711 0.517196 
2.995628 4.347274 3.729638 -30.029690 -0.378784 0.516442 
2.995251 4.347255 3.730033 -30.041690 -0.353912 0.486883 
2.994809 4.347210 3.730281 -30.064670 -0.332703 0.476614 
2.994555 4.347260 3.730352 -30.029540 -0.337585 0.488631 
2.994286 4.347222 3.730488 -30.027160 -0.330322 0.492455 
2.994098 4.347170 3.730678 -30.050080 -0.342773 0.476831 
2.994044 4.347205 3.730596 -30.031740 -0.301117 0.495523 
2.994065 4.347285 3.730649 -30.030820 -0.313416 0.482097 
2.994003 4.347188 3.730727 -30.045350 -0.329529 0.470211 
2.994032 4.347226 3.730594 -30.028470 -0.315338 0.482720 
2.993925 4.347224 3.730515 -30.030060 -0.321167 0.480226 
2.993782 4.347155 3.730456 -30.038540 -0.319397 0.499276 
2.993744 4.347236 3.730397 -30.036930 -0.342346 0.480400 
2.993671 4.347200 3.730337 -30.047850 -0.342560 0.486169 
2.993553 4.347260 3.730263 -30.061220 -0.350220 0.479039 
2.993582 4.347251 3.730344 -30.056210 -0.345642 0.488608 
2.993577 4.347201 3.730370 -30.066190 -0.333435 0.485527 
2.993530 4.347205 3.730392 -30.078700 -0.332306 0.475867 
2.993399 4.347232 3.730631 -30.114720 -0.324432 0.485818 
2.993425 4.347163 3.730559 -30.106140 -0.314545 0.509017 
2.993352 4.347248 3.730583 -30.128780 -0.325104 0.507271 
2.993329 4.347342 3.730618 -30.134000 -0.345825 0.485128 
2.993202 4.347270 3.730819 -30.179750 -0.341888 0.504834 
2.993195 4.347380 3.730752 -30.168330 -0.344605 0.489791 
2.993202 4.347331 3.730782 -30.170650 -0.354614 0.484627 
2.993276 4.347310 3.730680 -30.175110 -0.330200 0.491734 
2.993188 4.347156 3.730554 -30.191590 -0.315888 0.499480 
